{"accessors" : [{"bufferView" : 0, "byteOffset" : 0, "componentType" : 5123, "count" : 6, "type" : "SCALAR", "max" : [3], "min" : [0]}, {"bufferView" : 1, "byteOffset" : 0, "componentType" : 5126, "count" : 4, "type" : "VEC3", "max" : [5.422918796539307, 0, 5.422918796539307], "min" : [-5.422918796539307, 0, -5.422918796539307], "name" : "POSITION"}, {"bufferView" : 1, "byteOffset" : 12, "componentType" : 5126, "count" : 4, "type" : "VEC2", "max" : [1, 1], "min" : [0, 0], "name" : "TEXCOORD_0"}, {"bufferView" : 1, "byteOffset" : 20, "componentType" : 5126, "count" : 4, "type" : "VEC3", "max" : [0, 1.0000044107437134, 0], "min" : [0, 1.0000044107437134, 0], "name" : "NORMAL"}, {"bufferView" : 0, "byteOffset" : 12, "componentType" : 5123, "count" : 3024, "type" : "SCALAR", "max" : [557], "min" : [0]}, {"bufferView" : 2, "byteOffset" : 0, "componentType" : 5126, "count" : 558, "type" : "VEC3", "max" : [1.142591953277588, 0.08966799825429916, 1.142591953277588], "min" : [-1.142591953277588, 0, -1.142591953277588], "name" : "POSITION"}, {"bufferView" : 2, "byteOffset" : 12, "componentType" : 5126, "count" : 558, "type" : "VEC2", "max" : [0.5214930176734924, 0.9998890161514282], "min" : [0.00011100000119768083, 0.00011098384857177734], "name" : "TEXCOORD_0"}, {"bufferView" : 2, "byteOffset" : 20, "componentType" : 5126, "count" : 558, "type" : "VEC3", "max" : [0.9936902523040771, 1.0000044107437134, 0.9936791062355042], "min" : [-0.9936902523040771, -1.0000044107437134, -0.9936791062355042], "name" : "NORMAL"}, {"bufferView" : 0, "byteOffset" : 6060, "componentType" : 5123, "count" : 1344, "type" : "SCALAR", "max" : [256], "min" : [0]}, {"bufferView" : 3, "byteOffset" : 0, "componentType" : 5126, "count" : 257, "type" : "VEC3", "max" : [1.025665044784546, 0.06488999724388123, 1.0208740234375], "min" : [-1.0436400175094604, 0.04655199870467186, -0.9992070198059082], "name" : "POSITION"}, {"bufferView" : 3, "byteOffset" : 12, "componentType" : 5126, "count" : 257, "type" : "VEC2", "max" : [0.9699440002441406, 0.9916110038757324], "min" : [0.00674099987372756, 0.007851004600524902], "name" : "TEXCOORD_0"}, {"bufferView" : 3, "byteOffset" : 20, "componentType" : 5126, "count" : 257, "type" : "VEC3", "max" : [0.7491266131401062, -0.6515116095542908, 0.7538830041885376], "min" : [-0.7504034042358398, -1.0000044107437134, -0.757232129573822], "name" : "NORMAL"}, {"bufferView" : 0, "byteOffset" : 8748, "componentType" : 5123, "count" : 10428, "type" : "SCALAR", "max" : [1771], "min" : [0]}, {"bufferView" : 4, "byteOffset" : 0, "componentType" : 5126, "count" : 1772, "type" : "VEC3", "max" : [1.0452419519424438, 0.2642520070075989, 1.0278960466384888], "min" : [-1.050724983215332, 0.05831800028681755, -1.0061769485473633], "name" : "POSITION"}, {"bufferView" : 4, "byteOffset" : 12, "componentType" : 5126, "count" : 1772, "type" : "VEC2", "max" : [0.7836030125617981, 0.9292060136795044], "min" : [0.21598100662231445, 0.0979509949684143], "name" : "TEXCOORD_0"}, {"bufferView" : 4, "byteOffset" : 20, "componentType" : 5126, "count" : 1772, "type" : "VEC3", "max" : [0.9868943095207214, 0.9999959468841553, 0.9934757351875305], "min" : [-0.9911962747573853, -0.6780240535736084, -0.993821382522583], "name" : "NORMAL"}, {"bufferView" : 0, "byteOffset" : 29604, "componentType" : 5123, "count" : 5376, "type" : "SCALAR", "max" : [1165], "min" : [0]}, {"bufferView" : 5, "byteOffset" : 0, "componentType" : 5126, "count" : 1166, "type" : "VEC3", "max" : [0.5988019704818726, 0.15922899544239044, 0.4314129948616028], "min" : [-0.8241159915924072, 0.09241800010204315, -0.715395987033844], "name" : "POSITION"}, {"bufferView" : 5, "byteOffset" : 12, "componentType" : 5126, "count" : 1166, "type" : "VEC2", "max" : [0.6565549969673157, 0.6816419959068298], "min" : [0.2874250113964081, 0.22384697198867798], "name" : "TEXCOORD_0"}, {"bufferView" : 5, "byteOffset" : 20, "componentType" : 5126, "count" : 1166, "type" : "VEC3", "max" : [0.7056898474693298, 0.999962568283081, 0.8267866373062134], "min" : [-0.8444194793701172, 0.4795975387096405, -0.8582783341407776], "name" : "NORMAL"}], "asset" : {"generator" : "Aspose.3D 24.6.0", "version" : "2.0"}, "buffers" : [{"uri" : "data:application/octet-stream;base64,", "byteLength" : 160604}], "bufferViews" : [{"buffer" : 0, "byteOffset" : 0, "byteLength" : 40356, "target" : 34963}, {"buffer" : 0, "byteOffset" : 40360, "byteLength" : 128, "byteStride" : 32, "target" : 34962}, {"buffer" : 0, "byteOffset" : 40492, "byteLength" : 17856, "byteStride" : 32, "target" : 34962}, {"buffer" : 0, "byteOffset" : 58352, "byteLength" : 8224, "byteStride" : 32, "target" : 34962}, {"buffer" : 0, "byteOffset" : 66580, "byteLength" : 56704, "byteStride" : 32, "target" : 34962}, {"buffer" : 0, "byteOffset" : 123288, "byteLength" : 37312, "byteStride" : 32, "target" : 34962}], "meshes" : [{"primitives" : [{"attributes" : {"POSITION" : 1, "TEXCOORD_0" : 2, "NORMAL" : 3}, "indices" : 0, "mode" : 4}], "name" : ""}, {"primitives" : [{"attributes" : {"POSITION" : 5, "TEXCOORD_0" : 6, "NORMAL" : 7}, "indices" : 4, "mode" : 4}, {"attributes" : {"POSITION" : 9, "TEXCOORD_0" : 10, "NORMAL" : 11}, "indices" : 8, "mode" : 4}, {"attributes" : {"POSITION" : 13, "TEXCOORD_0" : 14, "NORMAL" : 15}, "indices" : 12, "mode" : 4}, {"attributes" : {"POSITION" : 17, "TEXCOORD_0" : 18, "NORMAL" : 19}, "indices" : 16, "mode" : 4}], "name" : ""}], "nodes" : [{"mesh" : 0, "name" : "Plane"}, {"mesh" : 1, "name" : "Pizza_Circle.014"}], "scene" : 0, "scenes" : [{"nodes" : [0, 1]}]}